<svg width="512" height="512" viewBox="0 0 512 512" fill="none" xmlns="http://www.w3.org/2000/svg">
  <path fill="#25D366" d="M256 64c-105.9 0-192 82-192 183.2 0 38.7 12.5 74.7 34 104L80 448l100.1-30c23.6 12.5 50.6 19.6 75.9 19.6 105.9 0 192-82 192-183.2C448 146 361.9 64 256 64zm0 320c-23.1 0-45.5-6-65.3-17.5l-5-3-59.3 17.8 17.2-58.4-3.3-5.3C128.8 299 120 271 120 247.2c0-73.4 61-133.2 136-133.2 74.9 0 136 59.8 136 133.2 0 73.5-61 133.2-136 133.2zm78.6-96.3c-4.3-2.1-25.4-12.5-29.4-14-3.9-1.4-6.8-2.1-9.7 2.1-2.9 4.3-11.1 14-13.6 16.8-2.5 2.9-5 3.2-9.3 1.1-4.3-2.1-18-6.6-34.3-21-12.7-11.2-21.3-25.1-23.8-29.4-2.5-4.3-.3-6.4 1.9-8.5 2-2 4.3-5.3 6.4-8 2.1-2.9 2.8-4.8 4.3-8 1.4-3.2.7-6.1-.4-8.5-1.1-2.5-9.7-23.4-13.4-32.2-3.5-8.4-7-7.3-9.7-7.3-2.5 0-5.4-.4-8.3-.4-2.9 0-8.5 1.1-12.9 6.1-4.3 4.8-16.9 16.5-16.9 40.4 0 23.9 17.3 47 19.7 50.2 2.5 3.2 34.1 52.5 83 72.7 11.6 5 20.7 8 27.8 10.2 11.7 3.7 22.3 3.2 30.8 2 9.4-1.4 25.4-10.4 29-20.5 3.6-10.1 3.6-18.7 2.5-20.5-1.1-1.8-3.9-2.9-8.1-4.8z"/>
</svg>
