<svg width="640" height="640" viewBox="0 0 240 240" fill="none" xmlns="http://www.w3.org/2000/svg">
  <rect width="240" height="240" fill="#FFFFFF" />
  <g stroke="#000000" stroke-width="9" stroke-linecap="round" stroke-linejoin="round">
    <circle cx="120" cy="52" r="12" />
    <circle cx="120" cy="104" r="12" />
    <path d="M120 188V132" />
    <path d="M120 132V74" />
    <path d="M120 132L94 160V200" />
    <path d="M120 132L146 160V200" />
    <path d="M120 112L78 154V186H52" />
    <path d="M120 112L162 154V186H188" />
    <path d="M120 96L88 128H72" />
    <path d="M120 96L152 128H168" />
    <circle cx="52" cy="186" r="9" />
    <circle cx="188" cy="186" r="9" />
    <circle cx="72" cy="128" r="9" />
    <circle cx="168" cy="128" r="9" />
    <circle cx="94" cy="200" r="9" />
    <circle cx="146" cy="200" r="9" />
  </g>
</svg>
